<svg width="114" height="26" viewBox="0 0 114 26" fill="none" xmlns="http://www.w3.org/2000/svg">
<path d="M35.7268 21.4582C34.7194 21.5067 33.7141 21.3259 32.7869 20.9296C31.8598 20.5333 31.035 19.9318 30.375 19.1705L32.4848 17.0408C32.9098 17.5224 33.4179 17.9239 33.9851 18.2262C34.5611 18.5224 35.2016 18.6717 35.8495 18.6608C36.3588 18.7183 36.8735 18.6205 37.326 18.3803C37.4553 18.2825 37.559 18.1548 37.6279 18.0082C37.6969 17.8616 37.7291 17.7004 37.7218 17.5387C37.7313 17.4077 37.7088 17.2765 37.6565 17.1561C37.6041 17.0357 37.5233 16.9297 37.421 16.8472C37.1259 16.6593 36.7885 16.5479 36.4393 16.5232L35.0855 16.3454C34.2627 16.2532 33.4605 16.0277 32.7105 15.6776C32.1183 15.4025 31.621 14.9584 31.2815 14.4014C30.9516 13.8161 30.7874 13.1524 30.8065 12.4811C30.79 11.9215 30.9016 11.3655 31.1328 10.8555C31.3639 10.3454 31.7086 9.89463 32.1405 9.53746C33.0271 8.7841 34.2292 8.4061 35.7466 8.40347C36.5038 8.39068 37.2599 8.46761 37.9989 8.63264C38.5702 8.76785 39.1147 8.99756 39.61 9.31224C40.0862 9.62304 40.528 9.98329 40.9282 10.387L38.8698 12.489C38.4741 12.093 38.0119 11.7694 37.5041 11.5328C37.0084 11.3019 36.4678 11.1832 35.9208 11.1851C35.4715 11.1494 35.0216 11.2455 34.6264 11.4617C34.5029 11.5401 34.4016 11.6489 34.3323 11.7776C34.263 11.9063 34.228 12.0505 34.2305 12.1966C34.2217 12.3341 34.2418 12.472 34.2895 12.6012C34.3372 12.7305 34.4115 12.8484 34.5076 12.9474C34.8129 13.1779 35.1787 13.3152 35.5605 13.3425L36.9895 13.5361C38.3803 13.7099 39.4266 14.1051 40.1286 14.7214C40.4814 15.0459 40.7586 15.4437 40.9405 15.8868C41.1224 16.3299 41.2047 16.8075 41.1815 17.2858C41.1901 18.0552 40.9515 18.8071 40.5007 19.4313C40.0174 20.0935 39.3597 20.6091 38.6006 20.9209C37.6902 21.2964 36.7117 21.4793 35.7268 21.4582Z" fill="black"/>
<path d="M50.9509 21.1657V19.04H50.8321C50.6426 19.738 50.2086 20.345 49.609 20.7509C48.9723 21.2122 48.2027 21.4549 47.416 21.4423C46.4642 21.4731 45.5258 21.211 44.7282 20.6916C43.9674 20.1461 43.3926 19.3807 43.0815 18.4987C42.681 17.3487 42.4919 16.136 42.5234 14.9189C42.4926 13.7096 42.6817 12.5047 43.0815 11.3628C43.3784 10.4599 43.9668 9.68071 44.7548 9.14733C45.5427 8.61394 46.4856 8.35646 47.4358 8.4152C48.22 8.40278 48.988 8.63938 49.6288 9.09086C50.2364 9.50268 50.6716 10.1227 50.8519 10.8333H50.9707V8.69573H54.557V21.1657H50.9509ZM48.6035 18.5579C49.0172 18.5647 49.4284 18.4923 49.8148 18.3446C50.1467 18.2213 50.4364 18.0061 50.65 17.7242C50.8539 17.4402 50.9595 17.0976 50.9509 16.7483V13.1132C50.9601 12.7638 50.8544 12.421 50.65 12.1372C50.4364 11.8553 50.1467 11.6401 49.8148 11.5169C49.4284 11.3692 49.0172 11.2967 48.6035 11.3035C48.2899 11.2949 47.978 11.3524 47.6881 11.4723C47.3982 11.5921 47.1369 11.7715 46.9212 11.9989C46.6912 12.2499 46.5136 12.544 46.3987 12.8642C46.2838 13.1844 46.2341 13.5243 46.2522 13.8639V16.0094C46.2363 16.347 46.2872 16.6845 46.402 17.0024C46.5168 17.3204 46.6932 17.6127 46.9212 17.8625C47.1362 18.0909 47.3973 18.2711 47.6874 18.391C47.9774 18.5109 48.2897 18.5678 48.6035 18.5579V18.5579Z" fill="black"/>
<path d="M61.9477 21.1659H60.3247C59.0976 21.1659 58.1977 20.8683 57.6251 20.2729C57.0524 19.6776 56.7661 18.815 56.7661 17.6849V3.27881H60.3287V18.3803H61.9121L61.9477 21.1659Z" fill="black"/>
<path d="M71.8986 21.1657V19.04H71.7799C71.5903 19.738 71.1564 20.345 70.5567 20.7509C69.92 21.2122 69.1505 21.4549 68.3638 21.4423C67.4119 21.4731 66.4736 21.211 65.676 20.6916C64.9126 20.1419 64.3375 19.3706 64.0293 18.4829C63.6288 17.3329 63.4397 16.1202 63.4711 14.9031C63.4404 13.6938 63.6295 12.4889 64.0293 11.347C64.3253 10.4475 64.9107 9.67085 65.6946 9.13779C66.4785 8.60473 67.4168 8.34514 68.3638 8.39939C69.148 8.38698 69.9159 8.62358 70.5567 9.07505C71.1644 9.48687 71.5996 10.1068 71.7799 10.8175H71.8986V8.69573H75.485V21.1657H71.8986ZM69.5513 18.5579C69.965 18.5647 70.3762 18.4923 70.7626 18.3446C71.0944 18.2213 71.3842 18.0061 71.5978 17.7242C71.8016 17.4402 71.9072 17.0976 71.8986 16.7483V13.1132C71.9078 12.7638 71.8022 12.421 71.5978 12.1372C71.3842 11.8553 71.0944 11.6401 70.7626 11.5169C70.3762 11.3692 69.965 11.2967 69.5513 11.3035C69.2377 11.2949 68.9257 11.3524 68.6359 11.4723C68.346 11.5921 68.0847 11.7715 67.869 11.9989C67.6404 12.2507 67.464 12.5451 67.3498 12.8651C67.2357 13.1852 67.1861 13.5246 67.2039 13.8639V16.0094C67.172 16.6905 67.411 17.3566 67.869 17.8625C68.0839 18.0909 68.3451 18.2711 68.6351 18.391C68.9252 18.5109 69.2375 18.5678 69.5513 18.5579V18.5579Z" fill="black"/>
<path d="M81.1219 21.1658H77.5396V8.6958H81.1219V11.4616H81.2446C81.3467 10.986 81.533 10.5324 81.7949 10.1222C82.0576 9.6999 82.4189 9.34742 82.8478 9.09487C83.3541 8.81427 83.9277 8.67761 84.5064 8.69975H85.1397V12.0346H84.2412C83.6594 12.0224 83.0784 12.0822 82.5113 12.2124C82.1162 12.2923 81.7562 12.4941 81.4821 12.7892C81.2371 13.1148 81.1164 13.5169 81.1417 13.9232L81.1219 21.1658Z" fill="black"/>
<path d="M86.913 21.1659V8.69591H90.4755V21.1659H86.913ZM90.816 5.38875C90.816 5.80606 90.692 6.214 90.4597 6.56098C90.2275 6.90795 89.8973 7.17839 89.5111 7.33809C89.1248 7.49778 88.6998 7.53957 88.2898 7.45816C87.8798 7.37674 87.5031 7.17579 87.2075 6.88071C86.9119 6.58563 86.7106 6.20967 86.629 5.80038C86.5474 5.39109 86.5893 4.96685 86.7493 4.58131C86.9093 4.19577 87.1802 3.86624 87.5278 3.6344C87.8754 3.40255 88.2841 3.27881 88.7022 3.27881C89.2628 3.27881 89.8004 3.50111 90.1969 3.8968C90.5933 4.29249 90.816 4.82916 90.816 5.38875V5.38875Z" fill="black"/>
<path d="M94.1174 21.166V11.4737H92.3242V8.70781H94.1174V7.12733C94.1174 5.85504 94.442 4.89094 95.0991 4.2469C95.7562 3.60285 96.6825 3.2749 97.9175 3.2749H100.241V6.04075H98.6102C98.3694 6.04074 98.1385 6.13595 97.9678 6.30552C97.7972 6.4751 97.7008 6.70523 97.6998 6.94557V8.6762H100.241V11.442H97.6998V21.166H94.1174Z" fill="black"/>
<path d="M108.713 14.2591L110.577 8.6958H113.922L109.045 23.1612C108.874 23.7295 108.606 24.2641 108.254 24.7416C107.927 25.1577 107.497 25.4817 107.007 25.682C106.42 25.9066 105.794 26.0127 105.166 25.9942H102.937V23.2283H105.336L105.772 21.4661L101.314 8.7037H104.877L106.734 14.2591L107.652 17.7085H107.798L108.713 14.2591Z" fill="black"/>
<path d="M35.8218 21.4741C34.8194 21.5231 33.819 21.3448 32.8956 20.9527C31.9721 20.5606 31.1496 19.9648 30.4897 19.2101L32.5877 17.0883C33.0129 17.568 33.5194 17.9693 34.084 18.2737C34.6588 18.5694 35.2979 18.7187 35.9445 18.7083C36.4572 18.7491 36.9703 18.6348 37.417 18.3803C37.5466 18.2828 37.6504 18.1552 37.7194 18.0085C37.7884 17.8618 37.8204 17.7006 37.8128 17.5387C37.8237 17.4082 37.8019 17.2771 37.7494 17.1571C37.6969 17.0371 37.6153 16.932 37.512 16.8512C37.2176 16.6648 36.8819 16.5536 36.5343 16.5272L35.1607 16.3652C34.3381 16.2742 33.536 16.05 32.7856 15.7014C32.2003 15.424 31.7091 14.9818 31.3725 14.4291C31.0433 13.8466 30.8804 13.1852 30.9014 12.5168C30.8847 11.959 30.9954 11.4048 31.2251 10.8962C31.4549 10.3875 31.7977 9.93775 32.2275 9.58102C33.1089 8.83029 34.307 8.45492 35.8218 8.45492C36.5764 8.44009 37.3301 8.51705 38.0662 8.68409C38.6358 8.81663 39.179 9.04369 39.6733 9.3558C40.1465 9.66892 40.5868 10.029 40.9875 10.4305L38.937 12.5247C38.5412 12.1298 38.079 11.8075 37.5714 11.5724C37.0845 11.3444 36.5535 11.2257 36.0157 11.2247C35.5677 11.1893 35.1192 11.2855 34.7253 11.5013C34.6015 11.5795 34.5001 11.6882 34.4307 11.8169C34.3614 11.9457 34.3265 12.0901 34.3294 12.2362C34.3219 12.373 34.3426 12.5099 34.3903 12.6383C34.4379 12.7668 34.5115 12.8841 34.6065 12.983C34.9125 13.2124 35.2779 13.3495 35.6595 13.3781L37.0805 13.5717C38.466 13.7456 39.5084 14.1407 40.2077 14.7571C40.5587 15.0811 40.8346 15.4778 41.0158 15.9194C41.197 16.361 41.2792 16.8368 41.2567 17.3135C41.2642 18.0797 41.0271 18.8284 40.5798 19.4511C40.097 20.1087 39.4425 20.6213 38.6877 20.9328C37.7809 21.3116 36.8045 21.496 35.8218 21.4741V21.4741Z" fill="black"/>
<path d="M50.994 21.1857V19.0639H50.8713C50.6866 19.7662 50.2536 20.3782 49.6521 20.7866C49.0185 21.2449 48.2533 21.4861 47.471 21.4741C46.522 21.5068 45.586 21.246 44.7911 20.7273C44.0291 20.1789 43.4554 19.4089 43.1484 18.5226C42.7521 17.3798 42.5644 16.1754 42.5942 14.9665C42.5627 13.7575 42.7504 12.5527 43.1484 11.4104C43.4575 10.5295 44.0312 9.76519 44.7911 9.22144C45.586 8.70281 46.522 8.44199 47.471 8.47466C48.2509 8.46279 49.0145 8.69795 49.6521 9.14636C50.2567 9.55342 50.6905 10.1678 50.8713 10.873H50.994V8.75519H54.5566V21.1857H50.994ZM48.6506 18.5818C49.056 18.5858 49.4586 18.5148 49.8381 18.3724C50.1698 18.2488 50.4595 18.0337 50.6734 17.7521C50.8759 17.4689 50.9814 17.128 50.9742 16.7801V13.1568C50.9814 12.809 50.8759 12.4681 50.6734 12.1848C50.4603 11.9033 50.1703 11.6892 49.8381 11.5685C49.4594 11.4229 49.0564 11.3505 48.6506 11.3551C48.335 11.3461 48.0212 11.4042 47.7298 11.5254C47.4384 11.6467 47.1761 11.8284 46.9604 12.0584C46.7322 12.3088 46.556 12.6018 46.4419 12.9206C46.3277 13.2393 46.2779 13.5774 46.2954 13.9155V16.0452C46.2681 16.7208 46.5067 17.3803 46.9604 17.8825C47.1755 18.113 47.4378 18.2948 47.7294 18.4154C48.021 18.5361 48.3351 18.5928 48.6506 18.5818V18.5818Z" fill="black"/>
<path d="M61.9514 21.1857H60.3363C59.1132 21.1857 58.2146 20.8854 57.6446 20.2927C57.0746 19.7 56.7856 18.8386 56.7856 17.7165V3.36572H60.3482V18.4198H61.9316L61.9514 21.1857Z" fill="black"/>
<path d="M71.8676 21.1856V19.0638H71.7488C71.5642 19.7661 71.1311 20.378 70.5296 20.7865C69.8924 21.2465 69.1229 21.4877 68.3367 21.474C67.3909 21.5292 66.4536 21.2692 65.672 20.735C64.8903 20.2008 64.3085 19.4225 64.018 18.5224C63.6218 17.3797 63.4341 16.1753 63.4639 14.9664C63.4323 13.7573 63.6201 12.5526 64.018 11.4103C64.3272 10.5294 64.9008 9.76506 65.6608 9.22131C66.4535 8.70044 67.3881 8.43686 68.3367 8.46663C69.1178 8.45473 69.8826 8.68986 70.5217 9.13833C71.1308 9.54591 71.5678 10.1636 71.7488 10.8729H71.8676V8.75506H75.4302V21.1856H71.8676ZM69.5242 18.5817C69.9362 18.5878 70.3457 18.5168 70.7315 18.3723C71.0614 18.2475 71.3495 18.0325 71.5628 17.752C71.7676 17.4699 71.8734 17.1282 71.8636 16.78V13.1567C71.8734 12.8085 71.7676 12.4668 71.5628 12.1847C71.3503 11.9042 71.0619 11.6903 70.7315 11.5683C70.3465 11.4206 69.9366 11.3482 69.5242 11.355C69.2113 11.3487 68.9007 11.4081 68.6122 11.5293C68.3238 11.6504 68.0641 11.8306 67.8498 12.0583C67.3916 12.5654 67.1538 13.2333 67.1887 13.9153V16.045C67.1589 16.7239 67.3961 17.3875 67.8498 17.8942C68.0645 18.1202 68.3248 18.2982 68.6133 18.4167C68.9019 18.5352 69.2123 18.5914 69.5242 18.5817V18.5817Z" fill="black"/>
<path d="M81.0587 21.1856H77.4961V8.75513H81.0587V11.521H81.1814C81.278 11.0518 81.4576 10.6036 81.7118 10.1973C81.9722 9.77554 82.3324 9.42412 82.7608 9.17396C83.2648 8.89476 83.8355 8.75815 84.4115 8.77883H85.0409V12.1018H84.1463C83.5671 12.0896 82.9887 12.1494 82.4243 12.2796C82.0316 12.3581 81.6732 12.557 81.3991 12.8486C81.1548 13.1728 81.0354 13.5738 81.0626 13.9786L81.0587 21.1856Z" fill="black"/>
<path d="M86.8304 21.1857V8.75517H90.393V21.1857H86.8304ZM90.7215 5.46381C90.7223 5.87972 90.5995 6.28652 90.3685 6.63272C90.1376 6.97892 89.809 7.24895 89.4243 7.40866C89.0395 7.56836 88.616 7.61056 88.2072 7.52989C87.7985 7.44923 87.4229 7.24935 87.128 6.95553C86.8331 6.66171 86.6321 6.28717 86.5505 5.87931C86.4689 5.47144 86.5104 5.04859 86.6697 4.66426C86.829 4.27993 87.0989 3.95141 87.4453 3.72026C87.7917 3.48911 88.199 3.36572 88.6156 3.36572C89.1735 3.36572 89.7085 3.58664 90.1033 3.98C90.4982 4.37335 90.7205 4.907 90.7215 5.46381V5.46381Z" fill="black"/>
<path d="M94.0064 21.1855V11.5248H92.2212V8.75896H94.0064V7.19824C94.0064 5.92595 94.335 4.96976 94.9842 4.32571C95.6334 3.68167 96.5675 3.35767 97.7947 3.35767H100.114V6.12351H98.4834C98.2437 6.12351 98.0137 6.21829 97.8438 6.38713C97.674 6.55596 97.578 6.78509 97.5769 7.02438V8.74711H100.114V11.513H97.5769V21.1855H94.0064Z" fill="black"/>
<path d="M108.57 14.2987L110.426 8.76698H113.759L108.883 23.1691C108.71 23.737 108.443 24.2714 108.091 24.7496C107.765 25.1652 107.337 25.4893 106.848 25.69C106.263 25.9108 105.64 26.0155 105.015 25.9982H102.775V23.2323H105.15L105.585 21.4741L101.164 8.75513H104.726L106.583 14.2868L107.501 17.7283H107.644L108.57 14.2987Z" fill="black"/>
<path d="M15.2382 23.064L0.449468 22.3528C0.36033 22.3473 0.274506 22.3171 0.201686 22.2655C0.128866 22.2138 0.0719511 22.1429 0.0373684 22.0608C0.00278573 21.9786 -0.00808742 21.8884 0.00597679 21.8003C0.020041 21.7123 0.0584823 21.6299 0.11696 21.5626C2.50402 18.9201 4.23195 15.7521 5.16 12.3167C5.1879 12.2104 5.2514 12.1167 5.33996 12.0513C5.42852 11.9859 5.53681 11.9527 5.64688 11.9572L12.115 12.2693L16.9324 19.3617C18.2584 21.531 17.6488 22.74 15.2382 23.064Z" fill="#FFAF39"/>
<path d="M24.2952 13.9287C24.2554 14.7287 24.0247 15.5077 23.6222 16.2007L20.9701 20.8157C20.5414 21.5558 19.9168 22.1638 19.1647 22.5729C18.4127 22.982 17.5623 23.1765 16.7069 23.135L15.2581 23.0679C17.6648 22.7399 18.2744 21.5269 16.9562 19.3695L12.127 12.285L20.9701 12.692C22.787 12.8698 23.5945 12.1428 23.5154 10.1948C24.0693 11.3598 24.3367 12.6399 24.2952 13.9287V13.9287Z" fill="#2C0C6A"/>
<path d="M16.948 0.301042L23.2617 9.72467C23.4895 10.0596 23.5918 10.4639 23.5507 10.8666C23.4042 12.2495 22.5294 12.8422 20.95 12.692L12.1148 12.2692L10.3414 9.64959C10.2499 9.51521 10.2104 9.35228 10.23 9.191C10.2497 9.02972 10.3272 8.88101 10.4483 8.77243C12.8875 6.48497 14.7115 3.62219 15.7526 0.447237C15.7944 0.329556 15.8682 0.225835 15.9658 0.147715C16.0634 0.0695951 16.1808 0.0201692 16.305 0.00498555C16.4292 -0.0101982 16.5551 0.00946132 16.6687 0.0617572C16.7823 0.114053 16.879 0.196915 16.948 0.301042V0.301042Z" fill="#A05FF5"/>
</svg>
